<svg xmlns="http://www.w3.org/2000/svg" viewBox="0 0 70 70"><defs><style>.cls-1,.cls-2{fill:#55616f;}.cls-2{fill-rule:evenodd;}.cls-3{fill:none;}</style></defs><title>Photoshop</title><g id="レイヤー_2" data-name="レイヤー 2"><g id="レイヤー_1-2" data-name="レイヤー 1"><g id="レイヤー_2-2" data-name="レイヤー 2"><g id="レイヤー_2-2-2" data-name="レイヤー 2-2"><path class="cls-1" d="M57.6.88H12.37A12.38,12.38,0,0,0,0,13.27V56.76A12.38,12.38,0,0,0,12.4,69.12H57.63A12.38,12.38,0,0,0,70,56.73V13.24A12.38,12.38,0,0,0,57.6.88Zm9.45,54.71A10.57,10.57,0,0,1,56.53,66.21h-43A10.61,10.61,0,0,1,2.92,55.62V14.38A10.61,10.61,0,0,1,13.5,3.79h43A10.59,10.59,0,0,1,67.05,14.38Z"/><path class="cls-2" d="M17.21,18c0-.18.06-.32.29-.32,1.84-.09,4.46-.15,7.29-.15,7.88,0,11.32,4.32,11.32,9.86,0,7.23-5.31,10.32-11.73,10.32H22.17v11c0,.23-.09.32-.32.32H17.53c-.23,0-.32-.09-.32-.32Zm5,15.11c.64,0,1.16,0,2.3,0,3.33,0,6.5-1.16,6.5-5.68C31,23.83,28.7,22,24.88,22c-1.14,0-2.22.06-2.71.09ZM47.6,29.69c-2.25,0-3,1.14-3,2.07s.52,1.75,3.52,3.3C52.59,37.22,54,39.29,54,42.35c0,4.55-3.47,7-8.17,7a12.88,12.88,0,0,1-5.92-1.22c-.18-.09-.23-.24-.23-.47v-4.2c0-.29.14-.38.32-.24a10.83,10.83,0,0,0,5.83,1.7C48.07,44.92,49,44,49,42.7c0-1-.64-1.93-3.53-3.44-4-1.93-5.72-3.91-5.72-7.18,0-3.67,2.86-6.71,7.85-6.71a13.89,13.89,0,0,1,5.19.79.63.63,0,0,1,.29.56v3.9c0,.24-.14.38-.41.3A10.53,10.53,0,0,0,47.6,29.69Z"/><rect class="cls-3" width="70" height="70"/></g></g></g></g></svg>