<svg xmlns="http://www.w3.org/2000/svg" viewBox="0 0 70 70"><defs><style>.cls-1{fill:#55616f;}.cls-2{fill:none;}</style></defs><title>css</title><g id="レイヤー_2" data-name="レイヤー 2"><g id="レイヤー_1-2" data-name="レイヤー 1"><g id="レイヤー_2-2" data-name="レイヤー 2"><g id="レイヤー_2-2-2" data-name="レイヤー 2-2"><polygon class="cls-1" points="19.51 24.42 20.04 30.45 43.37 30.45 43.06 36.68 27.47 36.68 27.74 42.85 42.42 42.85 41.91 50.82 35 52.74 27.96 50.75 27.64 46.13 21.41 46.13 22.25 55.74 35 59.29 47.75 55.74 50.49 24.42 19.51 24.42"/><path class="cls-1" d="M24.26,6.6h4.28V9.33H21V0h7.55V2.66H24.26ZM38.77,0H30.13V2.49l4.32,4.35H30.13V9.33h8.64V6.84h0l-4-4.35h4ZM49,0H40.36V2.49l4.33,4.35H40.36V9.33H49V6.84h0L45,2.49h4Z"/><rect class="cls-2" width="70" height="70"/></g></g><path class="cls-1" d="M59.92,13.88H10.08l4.4,50.41L35,70h0l20.52-5.71Zm-41.33,47L14.87,18.27H55.13L51.41,60.88,35,65.44Z"/></g></g></svg>