<svg xmlns="http://www.w3.org/2000/svg" viewBox="0 0 70 70"><defs><style>.cls-1{fill:#55616f;}.cls-2{fill:none;}</style></defs><title>Wordpress</title><g id="レイヤー_2" data-name="レイヤー 2"><g id="レイヤー_1-2" data-name="レイヤー 1"><g id="レイヤー_2-2" data-name="レイヤー 2"><g id="レイヤー_2-2-2" data-name="レイヤー 2-2"><g id="WordPress"><path class="cls-1" d="M58.39,11.61a33.07,33.07,0,0,0-46.77,0h0a33.31,33.31,0,0,0-5.55,7.33,1.24,1.24,0,0,0-.29.54A33.09,33.09,0,1,0,58.4,11.62ZM14,14a29.68,29.68,0,0,1,40.81-1.1,5.65,5.65,0,0,0-4.92,5.6,5.55,5.55,0,0,0,.17,1.35h0a5.88,5.88,0,0,0,.23.71c1.36,3.7,5.21,7.67,5,12.27C55.11,39.7,50.1,53.3,50.1,53.3L39.36,21c1.09,0,2.22-.08,3.36-.15a1.17,1.17,0,1,0-.13-2.34,146.63,146.63,0,0,1-16.24,0A1.19,1.19,0,0,0,25.1,19.6a1.16,1.16,0,0,0,1.06,1.25h0s1.23.08,3.22.15l4.83,13.11L27.57,53.35,16.93,21l3.23-.15A1.19,1.19,0,1,0,20,18.48c-4.41.25-7.69.27-9.85.24A30.07,30.07,0,0,1,14,14ZM5.33,35A29.57,29.57,0,0,1,7.76,23.2L21.67,61.53A29.86,29.86,0,0,1,14,56,29.44,29.44,0,0,1,5.33,35ZM26.91,63.56l8.82-25.44L44.88,63A29.42,29.42,0,0,1,35,64.67,29.91,29.91,0,0,1,26.91,63.56ZM56,56a29.32,29.32,0,0,1-5.16,4.13c2.91-8.45,9.69-28.21,10.37-30.48a22.65,22.65,0,0,0,.77-7A29.71,29.71,0,0,1,56,56Z"/></g><rect class="cls-2" width="70" height="70"/></g></g></g></g></svg>