<?xml version="1.0" encoding="utf-8"?>
<!-- Generator: Adobe Illustrator 24.0.3, SVG Export Plug-In . SVG Version: 6.00 Build 0)  -->
<svg version="1.1" id="レイヤー_1" xmlns="http://www.w3.org/2000/svg" xmlns:xlink="http://www.w3.org/1999/xlink" x="0px"
	 y="0px" viewBox="0 0 70 70" style="enable-background:new 0 0 70 70;" xml:space="preserve">
<style type="text/css">
	.st0{fill:#55616F;}
	.st1{fill:none;}
</style>
<title>PHP</title>
<g id="レイヤー_2_1_">
	<g id="レイヤー_1-2">
		<g id="レイヤー_2-2">
			<g id="レイヤー_2-2-2">
				<path class="st0" d="M18.6,24.6H6.3L1.9,49.8h5.6l1.1-6.6h6.7c4.6,0,9-4.1,9.8-8.7l0.3-1.6c0.8-3.7-1.5-7.3-5.2-8.2c0,0,0,0,0,0
					C19.7,24.6,19.2,24.6,18.6,24.6z M20.2,32.9l-0.3,1.6c-0.3,2-2.4,4.3-4.4,4.3h-6l1.8-10.3H17c2,0.3,3.5,2.1,3.2,4.2
					C20.2,32.7,20.2,32.8,20.2,32.9z M61.6,24.6H49.3l-4.4,25.3h5.6l1.1-6.6h6.6c4.6,0,9-4.1,9.8-8.7l0.3-1.6
					c0.8-3.7-1.5-7.3-5.2-8.2C62.7,24.6,62.1,24.5,61.6,24.6L61.6,24.6z M63.2,32.9l-0.3,1.6c-0.3,2-2.4,4.3-4.4,4.3h-6.1l1.8-10.3
					h5.9c2,0.3,3.4,2.2,3.1,4.2C63.2,32.8,63.2,32.8,63.2,32.9z M46,31.5l-2.2,11.7h-5.6l2.3-11.7c0.3-1.2-0.5-2.4-1.7-2.7
					c-0.2,0-0.4,0-0.6,0h-5.4l-2.7,14.4h-5.6l4.7-25.3H35l-1.3,6.9h8.2C45,24.6,46.7,27.8,46,31.5z"/>
				<rect y="0" class="st1" width="70" height="70"/>
			</g>
		</g>
	</g>
</g>
</svg>
