<svg xmlns="http://www.w3.org/2000/svg" viewBox="0 0 70 70.03"><defs><style>.cls-1{fill:#55616f;}.cls-2{fill:none;}</style></defs><title>javascript</title><g id="レイヤー_2" data-name="レイヤー 2"><g id="レイヤー_1-2" data-name="レイヤー 1"><g id="レイヤー_2-2" data-name="レイヤー 2"><g id="レイヤー_2-2-2" data-name="レイヤー 2-2"><polygon class="cls-1" points="28.07 37.71 29.18 27.87 42.34 27.87 42.95 34.41 49.39 34.41 48.18 21.21 23.55 21.21 21.41 43.88 42.34 43.88 41.88 51.7 35 53.72 28.07 51.83 27.46 46.88 21.41 46.88 22.26 56.67 35 60.22 47.74 56.67 49.39 37.71 28.07 37.71"/><path class="cls-1" d="M26.3,6.26h4.17V0h3.12V9.4H26.3ZM43.7,0H35.07V2.53l4.31,4.34H35.07V9.36H43.7V6.87h0l-4-4.34h4Z"/><rect class="cls-2" width="70" height="70"/></g></g><path class="cls-1" d="M60,13.91H10.15l4.4,50.41L35.07,70h0l20.52-5.71Zm-41.33,47L14.94,18.3H55.2L51.48,60.91,35.07,65.47Z"/></g></g></svg>