<svg xmlns="http://www.w3.org/2000/svg" viewBox="0 0 70 70"><defs><style>.cls-1{fill:none;}.cls-2{fill:#55616f;}</style></defs><title>MySQL</title><g id="レイヤー_2" data-name="レイヤー 2"><g id="レイヤー_1-2" data-name="レイヤー 1"><g id="レイヤー_2-2" data-name="レイヤー 2"><g id="レイヤー_2-2-2" data-name="レイヤー 2-2"><rect class="cls-1" width="70" height="70"/><path class="cls-2" d="M15.73,38.72h-.81c-.85,0-1.33.35-1.92,1.54l-3.1,7.1-3.08-7.1c-.6-1.19-1.08-1.54-1.92-1.54H4.09A1.64,1.64,0,0,0,2.46,40.2v8.55h2.2V40.53l3.16,7.08A2.06,2.06,0,0,0,9.47,49h.87A2,2,0,0,0,12,47.61l3.17-7.08v8.22h2.19V40.2A1.64,1.64,0,0,0,15.73,38.72Z"/><path class="cls-2" d="M29.33,41.82H27.16v5.59H22.41c-1.12,0-1.26-.6-1.26-1.34V41.82H19v4.25c0,1.53,1.11,2.77,3.43,2.77h4.75s.27,1.6-1.26,1.56H19v1.42h6.9c2.32,0,3.43-1.24,3.43-2.76Z"/><path class="cls-2" d="M37.31,43.19H34.4a1.15,1.15,0,0,1-1.27-1,1.31,1.31,0,0,1,0-.28v-.37c0-.74.23-1.19,1.41-1.16h5.92V38.94H34.54c-2.6,0-3.63,1.06-3.63,2.59v.37c0,1.53,1,2.59,3.63,2.59h2.61c1,0,1.27.54,1.27,1.28v.38c0,.54-.3,1.15-1.41,1.16H31.09v1.6H37c2.6,0,3.63-1.24,3.63-2.76v-.38C40.64,44.31,39.68,43.28,37.31,43.19Z"/><path class="cls-2" d="M55.94,46V39H53.77v7c0,1.52,1.12,2.76,3.43,2.76h6V47.3h-6C56.08,47.3,55.94,46.7,55.94,46Z"/><path class="cls-2" d="M52.53,46h0V41.7h0c0-1.52-1.11-2.76-3.41-2.76H45.59c-3.2,0-3.85,1.24-3.85,2.76h0V46h0c0,1.52.7,2.76,3.85,2.76h3.53l1.72,1.59h2.45l-2.18-2C52.38,48,52.53,46.94,52.53,46Zm-2-4.26V46h0a1.18,1.18,0,0,1-.65,1.2l-1.43-1.32H46l1.57,1.46h-2c-1.26,0-1.42-.6-1.42-1.34h0V41.7h0c0-.73.16-1.33,1.42-1.33H49.1c1.11,0,1.41.6,1.41,1.33Z"/><path class="cls-2" d="M66.69,47a.55.55,0,0,0-.54-.53H65.3v1.65h.26V47.5H66l.47.7.22-.15-.37-.56A.49.49,0,0,0,66.69,47Zm-.5.24h-.63v-.5h.59a.27.27,0,0,1,.27.26A.24.24,0,0,1,66.19,47.24Z"/><path class="cls-2" d="M65.91,45.71a1.63,1.63,0,1,0,1.63,1.63h0A1.63,1.63,0,0,0,65.91,45.71Zm0,3a1.36,1.36,0,1,1,1.36-1.36,1.36,1.36,0,0,1-1.36,1.36Z"/><path class="cls-2" d="M49.66,32.47a9,9,0,0,0-.36,2c0,.64-.63,1.06-1.43.7-1.35-.59-1.54-3-1.69-3.84a11.27,11.27,0,0,1,.68-3.94c-.93-.76-2-4.36-2.29-4.84a15.42,15.42,0,0,1-1.72-2.45c-.15-.61,0-1.72,1-1.86a5.39,5.39,0,0,1,3.84,1.61c1.29-.14,2.12.07,4.2,1.22a16.75,16.75,0,0,1,5.74,6c.41.88,2.19,5.43,2.83,5.78,3.33.81,6.07,4,5.53,4.2a29.66,29.66,0,0,0-3.37.71c-.11.18.93,1,1.4,1.18s2.69,1.77,2.87,2.88A9,9,0,0,0,64.22,40a9.55,9.55,0,0,1-2.79-2,.61.61,0,0,1,0-.86.68.68,0,0,1,.23-.14c.4-.18,3.12-.43,3.27-.57S62.9,35,62.4,34.64s-2.42-.77-3-1.33c-1.3-1.33-1.74-4.88-3.82-7.52C51.47,20.6,48,20.7,47,20.63c-.61-1-2.94-1.8-3.41-1.19-.33.44,1.18,2.37,1.53,2.75.64.71,1.19,3.45,1.85,4.25.28.35,1.07.86.71,1.36A8.4,8.4,0,0,0,47,32c.12,1.1,1,2.74,1.28,2.42s-.21-2.93,1.48-3.54c.41,2.29,2.16,4.68,3.84,6.39A7.86,7.86,0,0,1,49.66,32.47Zm-2-10c.08.06.8,1.27.93,1.35s.28-.32.31-.75a1,1,0,0,0-1.13-.85l-.11,0c-.15.07,0,.17,0,.23Z"/><rect class="cls-1" width="70" height="70"/></g></g></g></g></svg>