<svg xmlns="http://www.w3.org/2000/svg" viewBox="0 0 70 70.03"><defs><style>.cls-1{fill:#55616f;}.cls-2{fill:none;}</style></defs><title>HTML</title><g id="レイヤー_2" data-name="レイヤー 2"><g id="レイヤー_1-2" data-name="レイヤー 1"><g id="レイヤー_2-2" data-name="レイヤー 2"><g id="レイヤー_2-2-2" data-name="レイヤー 2-2"><polygon class="cls-1" points="49.94 30.5 50.47 24.47 19.53 24.47 21.14 42.88 42.41 42.88 41.9 50.84 35 52.77 27.97 50.77 27.65 46.16 21.43 46.16 22.26 55.76 35 59.3 47.74 55.76 49.4 36.72 26.99 36.72 26.55 30.5 49.94 30.5"/><path class="cls-1" d="M24.15,0V9.4H21V6.26H18V9.4H14.9V0H18V3.14h3V0ZM34,0H25.78V3.12h2.57V9.4h3.11V3.12H34ZM55.1,6.26H50.93V0H47.81V9.4H55.1ZM43.07,0,40.92,3.3,38.77,0H35.66V9.4h3.11V4.94L40.92,8l2.15-3V9.4h3.12V0Z"/><rect class="cls-2" width="70" height="70"/></g></g><path class="cls-1" d="M59.92,13.91H10.08l4.4,50.41L35,70h0l20.52-5.71Zm-41.33,47L14.87,18.3H55.13L51.41,60.91,35,65.47Z"/></g></g></svg>